<svg xmlns="http://www.w3.org/2000/svg" viewBox="0 0 50.05 44.04"><defs><style>.cls-1{fill:#262626;}</style></defs><g id="Laag_2" data-name="Laag 2"><g id="background"><path class="cls-1" d="M18.81,19.91a1.09,1.09,0,0,1-.77-.32L.32,1.86A1.09,1.09,0,0,1,.08.67a1.11,1.11,0,0,1,1-.67H49a1.07,1.07,0,0,1,1,.8A1.08,1.08,0,0,1,49.51,2L19.36,19.76A1.08,1.08,0,0,1,18.81,19.91ZM3.72,2.18,19,17.45,45,2.18Z"/><path class="cls-1" d="M24,44l-.18,0a1.1,1.1,0,0,1-.89-.84L17.75,19a1.08,1.08,0,0,1,.51-1.16L48.41.15a1.11,1.11,0,0,1,1.33.17,1.09,1.09,0,0,1,.16,1.33l-25,41.86A1.1,1.1,0,0,1,24,44ZM20,19.36,24.47,40,45.84,4.19Z"/></g></g></svg>