<svg xmlns="http://www.w3.org/2000/svg" viewBox="0 0 48.37 48.38"><defs><style>.cls-1{fill:#262626;}</style></defs><g id="Laag_2" data-name="Laag 2"><g id="background"><path class="cls-1" d="M24.18,48.38A24.19,24.19,0,0,1,7.07,7.09,24.19,24.19,0,1,1,41.28,41.3h0A24,24,0,0,1,24.18,48.38ZM24.18,2A22.15,22.15,0,0,0,8.52,39.85a22.14,22.14,0,0,0,31.32,0h0A22.15,22.15,0,0,0,24.18,2Z"/><polygon class="cls-1" points="11.9 36.41 28.37 28.03 20.27 19.94 11.9 36.41"/><polygon class="cls-1" points="20.25 19.91 22.78 22.44 30.45 17.71 25.72 25.38 28.39 28.05 36.75 11.56 20.25 19.91"/></g></g></svg>